<svg width="42" height="36" viewBox="0 0 42 36" fill="none" xmlns="http://www.w3.org/2000/svg">
<path d="M40.5494 25.5905C40.051 28.3204 38.7014 30.5253 37.3604 32.9063C37.0302 33.491 36.3732 33.6905 35.8093 33.2804C33.9884 31.9524 32.1809 30.6039 30.36 29.2759C29.3163 28.5154 30.5855 26.9634 31.6258 27.7225C32.8122 28.5878 33.9943 29.4617 35.1778 30.3321C35.1586 30.2648 35.1455 30.1921 35.1402 30.1139C34.815 25.5427 32.886 19.7367 27.641 19.015C27.3324 18.972 27.0155 18.9524 26.6964 18.9493C26.3983 20.4492 25.7821 21.8886 24.9541 23.169C24.092 24.5007 22.4912 25.8641 20.8464 24.9413C19.5312 24.2039 19.3648 22.4574 19.8034 21.1508C20.2788 19.7323 21.4394 18.5849 22.7368 17.8894C23.4155 17.5265 24.1442 17.2748 24.8942 17.1214C24.9381 15.341 24.4059 13.5781 23.1643 12.2079C22.094 11.0274 20.603 10.3002 19.1012 10.29C19.1786 11.4408 19.0102 12.6098 18.7471 13.7557C18.4043 15.2471 17.9 17.1108 16.3975 17.8429C14.879 18.5811 13.3227 17.613 12.7672 16.1362C12.1999 14.6291 12.5492 12.8937 13.3632 11.5505C14.1638 10.2278 15.3491 9.27656 16.6957 8.75437C16.6045 8.54138 16.4989 8.33264 16.3755 8.12673C14.9497 5.74369 12.0896 4.4496 9.36776 4.60639C6.0758 4.79496 3.17392 6.6268 0.822873 8.82059C-0.115699 9.69635 -1.27237 8.0572 -0.338356 7.18665C2.5496 4.49075 6.27963 2.45118 10.3289 2.6074C13.7586 2.73987 17.1563 4.83012 18.5586 8.00779C18.6031 8.10945 18.6442 8.2097 18.6821 8.3118C19.8409 8.23064 21.0324 8.44324 22.1432 8.98503C25.2015 10.4784 26.8953 13.6381 26.9004 16.9489C28.8252 17.001 30.7436 17.6635 32.2398 18.8563C35.3912 21.3686 36.7172 25.4295 37.0886 29.324C37.7506 28.0564 38.3072 26.7518 38.5733 25.2868C38.8052 24.017 40.7865 24.3253 40.5546 25.5951L40.5494 25.5905ZM14.6174 13.5951C14.4201 14.3082 14.6585 17.0768 15.8604 15.7403C16.6819 14.825 16.8932 13.1282 17.0531 11.9794C17.1114 11.5569 17.1371 11.1365 17.1225 10.7255C16.8928 10.8357 16.6661 10.9654 16.4459 11.1192C15.598 11.7142 14.8978 12.5854 14.6174 13.5951ZM22.1949 20.8969C21.8813 21.3153 20.9627 23.3637 22.1583 23.1983C23.2843 23.0425 24.1954 20.4452 24.4787 19.5513C24.5084 19.4578 24.533 19.3613 24.5611 19.2678C23.6331 19.5722 22.7921 20.0996 22.1949 20.8969ZM36.0601 30.9792C36.0842 30.9972 36.1083 31.0152 36.1341 31.0331C36.1442 31.0144 36.1561 30.9957 36.1663 30.977C36.1304 30.9794 36.0963 30.9817 36.0601 30.9792Z" fill="#1A73E9"/>
</svg>
