<svg width="65" height="53" viewBox="0 0 65 53" fill="none" xmlns="http://www.w3.org/2000/svg">
<path d="M1.73159 37.4518C2.47913 41.5465 4.5035 44.854 6.51503 48.4255C7.0104 49.3025 7.9959 49.6017 8.84174 48.9865C11.5731 46.9946 14.2844 44.9718 17.0157 42.9799C18.5812 41.8391 16.6774 39.5111 15.117 40.6497C13.3373 41.9477 11.5642 43.2585 9.78897 44.5642C9.81784 44.4631 9.83743 44.3541 9.84531 44.2369C10.3332 37.38 13.2266 28.6711 21.0941 27.5885C21.5571 27.5239 22.0325 27.4946 22.5111 27.49C22.9583 29.7397 23.8825 31.8989 25.1245 33.8195C26.4177 35.8171 28.8188 37.8622 31.2861 36.4779C33.2588 35.3719 33.5085 32.752 32.8505 30.7922C32.1375 28.6644 30.3965 26.9433 28.4505 25.9C27.4324 25.3558 26.3393 24.9782 25.2143 24.748C25.1485 22.0775 25.9468 19.4332 27.8092 17.3779C29.4146 15.607 31.6512 14.5163 33.9039 14.5009C33.7878 16.2272 34.0403 17.9807 34.4349 19.6996C34.9493 21.9367 35.7057 24.7321 37.9595 25.8304C40.2372 26.9376 42.5717 25.4855 43.4049 23.2703C44.2559 21.0097 43.7318 18.4065 42.5109 16.3917C41.31 14.4076 39.532 12.9808 37.5121 12.1975C37.6489 11.8781 37.8073 11.5649 37.9924 11.2561C40.131 7.68151 44.4213 5.74037 48.504 5.97556C53.442 6.25842 57.7948 9.00618 61.3214 12.2969C62.7292 13.6105 64.4642 11.1518 63.0632 9.84595C58.7313 5.80211 53.1362 2.74275 47.0623 2.97708C41.9178 3.17579 36.8212 6.31116 34.7177 11.0777C34.6511 11.2301 34.5894 11.3805 34.5325 11.5337C32.7944 11.4119 31.007 11.7308 29.3409 12.5435C24.7534 14.7835 22.2126 19.5231 22.205 24.4893C19.3178 24.5675 16.4402 25.5612 14.1959 27.3504C9.46883 31.1189 7.47983 37.2102 6.92283 43.052C5.92975 41.1506 5.09492 39.1936 4.69567 36.9961C4.34787 35.0915 1.37597 35.554 1.72377 37.4586L1.73159 37.4518ZM40.6295 19.4586C40.9255 20.5283 40.5679 24.6812 38.765 22.6764C37.5328 21.3034 37.2158 18.7583 36.976 17.035C36.8886 16.4013 36.8501 15.7708 36.8719 15.1542C37.2164 15.3196 37.5565 15.5141 37.8869 15.7448C39.1587 16.6373 40.2089 17.944 40.6295 19.4586ZM29.2632 30.4113C29.7337 31.0389 31.1116 34.1116 29.3182 33.8635C27.6292 33.6298 26.2625 29.7337 25.8376 28.393C25.793 28.2526 25.7562 28.1079 25.7141 27.9677C27.106 28.4243 28.3674 29.2154 29.2632 30.4113ZM8.46549 45.5348C8.42933 45.5618 8.39318 45.5888 8.35458 45.6156C8.3393 45.5876 8.32157 45.5595 8.30628 45.5315C8.36 45.5351 8.41128 45.5385 8.46549 45.5348Z" fill="#1A73E9"/>
</svg>
