<svg width="54" height="23" viewBox="0 0 54 23" fill="none" xmlns="http://www.w3.org/2000/svg">
<path d="M0.248274 6.52764L14.4584 8.97236L7.61982 12.5926L4.96615 20.361L0.248274 6.52764Z" fill="#1A73E9"/>
<path d="M5.57057 11.3947C5.57057 11.3947 5.77963 12.6805 7.02642 13.7499C8.15834 14.8175 9.85903 16.244 12.0249 17.3283C12.1398 17.3301 12.3677 17.4504 12.4807 17.5688C12.7105 17.5725 12.9365 17.8094 13.1644 17.9296C13.3922 18.0499 13.735 18.172 14.0759 18.4107C14.4187 18.5328 14.7596 18.7715 15.2172 18.8955C16.0158 19.2581 16.9292 19.6227 17.9557 20.1056C18.984 20.472 20.1253 20.9567 21.3853 21.2103C21.5002 21.2121 21.73 21.2158 21.843 21.3342C21.9579 21.3361 22.1876 21.3398 22.3006 21.4582C22.6453 21.4638 22.9881 21.5859 23.3308 21.708C23.4457 21.7099 23.6755 21.7136 23.9053 21.7173C24.135 21.721 24.2499 21.7229 24.4797 21.7266C24.7095 21.7303 24.8244 21.7322 25.0541 21.7359L25.2839 21.7396L25.5137 21.7433C25.7434 21.747 25.8583 21.7489 26.0881 21.7526C26.3179 21.7563 26.4328 21.7582 26.6625 21.7619C27.0072 21.7674 27.4667 21.7749 27.8114 21.7804C28.0412 21.7842 28.156 21.786 28.3858 21.7897C28.6156 21.7934 28.7305 21.7953 28.9603 21.799C29.19 21.8027 29.3049 21.8046 29.5347 21.8083C29.7645 21.812 29.8793 21.8139 30.1091 21.8176C31.7175 21.8436 33.2167 21.518 34.8307 21.1943C36.4448 20.8707 37.9477 20.312 39.4525 19.6368C40.9574 18.9616 42.3492 18.168 43.628 17.256C44.9068 16.3439 46.0726 15.3135 47.0086 14.2794C48.0596 13.2471 48.8826 12.0945 49.5908 10.9401C50.2989 9.78568 50.8903 8.74596 51.3668 7.70439C51.3705 7.47128 51.606 7.12533 51.7246 6.89407C51.7265 6.77752 51.7284 6.66096 51.8451 6.54626C51.9619 6.43156 51.8489 6.31315 51.9657 6.19845C51.9676 6.0819 51.9695 5.96534 52.0862 5.85064C52.0881 5.73409 52.09 5.61753 52.0919 5.50098C52.0956 5.26787 52.2143 5.03661 52.3329 4.80536C52.3367 4.57225 52.3405 4.33914 52.4591 4.10788C52.4591 4.10788 52.4629 3.87477 52.4648 3.75822C52.4648 3.75822 52.4648 3.75822 52.4667 3.64166C52.4667 3.64166 52.4667 3.64166 52.4685 3.5251C52.4723 3.29199 52.4742 3.17544 52.478 2.94233L52.4817 2.70922C52.4817 2.70922 52.4817 2.70922 52.4836 2.59266C52.4836 2.59266 52.4836 2.59266 52.4855 2.47611C52.4911 2.12644 52.4949 1.89333 52.5006 1.54366C52.5006 1.54366 52.5006 1.54366 52.5024 1.42711C52.5024 1.42711 52.5062 1.194 52.5081 1.07744C53.1974 1.08858 53.2012 0.855469 53.2012 0.855469C53.2012 0.855469 53.0844 0.970168 52.9639 1.31798L52.9601 1.55109C52.9601 1.55109 52.9601 1.55109 52.9582 1.66764C52.9545 1.90075 52.8358 2.13201 52.7153 2.47982C52.7153 2.47982 52.7153 2.47982 52.7134 2.59637C52.7134 2.59637 52.7096 2.82948 52.7077 2.94604C52.7058 3.0626 52.5872 3.29385 52.4685 3.5251C52.4685 3.5251 52.4685 3.5251 52.4667 3.64166C52.4667 3.64166 52.4667 3.64166 52.4648 3.75822L52.461 3.99133C52.4572 4.22444 52.3405 4.33914 52.2218 4.57039C52.2181 4.8035 51.9845 5.0329 51.9826 5.14945C51.9826 5.14945 51.9789 5.38257 51.8621 5.49726C51.8621 5.49726 51.8583 5.73037 51.7416 5.84507C51.7416 5.84507 51.7378 6.07818 51.621 6.19288C51.621 6.19288 51.6173 6.42599 51.5005 6.54069C51.3818 6.77195 51.2632 7.0032 51.1445 7.23446C50.555 8.15762 49.9637 9.19734 49.2574 10.2352C48.5511 11.2731 47.617 12.1906 46.6828 13.1082C45.6338 14.024 44.5847 14.9397 43.4227 15.737C42.2607 16.5344 40.8707 17.2114 39.5976 17.7738C38.2095 18.3343 36.8233 18.7782 35.4409 18.9891C34.0585 19.1999 32.5613 19.4089 31.1826 19.3866C30.9529 19.3829 30.838 19.381 30.6082 19.3773C30.3784 19.3736 30.2635 19.3718 30.0338 19.368C29.9189 19.3662 29.6891 19.3625 29.5742 19.3606C29.4593 19.3588 29.2296 19.3551 29.1147 19.3532C28.77 19.3476 28.4254 19.3421 28.0807 19.3365C27.9658 19.3346 27.7361 19.3309 27.6212 19.3291C27.5063 19.3272 27.2765 19.3235 27.1616 19.3216C27.1616 19.3216 27.0467 19.3198 26.9318 19.3179C26.817 19.3161 26.817 19.3161 26.7021 19.3142C26.5872 19.3124 26.3574 19.3086 26.2425 19.3068C26.1276 19.3049 25.8979 19.3012 25.783 19.2994C25.6681 19.2975 25.4383 19.2938 25.3234 19.2919C24.9788 19.2864 24.7509 19.1661 24.4081 19.044C24.2932 19.0421 24.0635 19.0384 23.9505 18.92C23.8356 18.9181 23.6058 18.9144 23.4928 18.796C21.2064 18.0596 19.2665 17.2121 17.6694 16.4868C17.3266 16.3647 16.9857 16.126 16.643 16.0039C16.3002 15.8817 16.0742 15.6449 15.7314 15.5228C15.5035 15.4025 15.2756 15.2823 15.0477 15.162C14.818 15.1583 14.7068 14.9233 14.592 14.9215C12.541 13.839 10.7178 12.8769 9.34863 12.2719C7.97941 11.6668 6.9492 11.417 6.71378 11.7629L5.57057 11.3947Z" fill="#1A73E9"/>
<path d="M28.7211 22.3781C28.7211 22.3781 28.7211 22.3781 28.836 22.3799C29.0657 22.3836 29.1806 22.3855 29.4104 22.3892C29.5253 22.3911 29.755 22.3948 29.8699 22.3966C31.4783 22.4226 33.0924 22.0989 34.5916 21.7734C36.2056 21.4497 37.7085 20.8911 39.2134 20.2159C40.7182 19.5407 42.11 18.7471 43.3888 17.835C44.6676 16.923 45.8334 15.8926 46.8843 14.8603C47.8204 13.8261 48.7583 12.6754 49.4664 11.521C50.1727 10.4832 50.7641 9.44344 51.2425 8.28531C51.2444 8.16876 51.363 7.9375 51.4798 7.8228L51.4854 7.47314L51.719 7.24374L51.7227 7.01063L51.7265 6.77752C51.7265 6.77752 51.7284 6.66096 51.7303 6.54441C51.7303 6.54441 51.7321 6.42785 51.734 6.3113C51.734 6.3113 51.734 6.3113 51.7359 6.19474L51.977 5.49912C51.977 5.49912 51.9826 5.14945 52.0994 5.03476C52.0994 5.03476 52.1013 4.9182 52.1032 4.80164L52.1088 4.45198C52.1088 4.45198 52.1088 4.45198 52.1107 4.33542C52.1145 4.10231 52.1164 3.98576 52.1201 3.75265L52.1239 3.51954L52.1258 3.40298C52.1258 3.40298 53.1767 2.37069 53.1823 2.02102C53.1823 2.02102 53.1823 2.02102 53.1842 1.90447C53.1842 1.90447 53.1899 1.5548 53.1918 1.43825C53.1955 1.20513 53.1974 1.08858 53.1974 1.08858L53.1993 0.972024C53.1993 0.972024 53.1993 0.972024 53.1974 1.08858C53.1974 1.08858 53.1936 1.32169 53.0769 1.43639L53.0731 1.6695L53.0712 1.78606C53.0675 2.01917 52.9488 2.25042 52.8283 2.59823C52.8283 2.59823 52.8283 2.59823 52.8264 2.71479C52.8264 2.71479 52.8226 2.9479 52.8207 3.06445L52.5815 3.64352C52.5815 3.64352 52.5815 3.64352 52.5797 3.76007L52.5759 3.99318C52.5759 3.99318 52.574 4.10974 52.5721 4.22629C52.5702 4.34285 52.5684 4.4594 52.4516 4.5741C52.4497 4.69066 52.4478 4.80721 52.3311 4.92191L52.3273 5.15502C52.3273 5.15502 52.2124 5.15317 52.2105 5.26972C52.2105 5.26972 52.2086 5.38628 52.2068 5.50283C52.2068 5.50283 52.2049 5.61939 52.0881 5.73409L51.9657 6.19845C51.9657 6.19845 51.9638 6.31501 51.847 6.42971C51.8451 6.54626 51.7284 6.66096 51.6097 6.89222L51.606 7.12533C50.8997 8.16319 50.1934 9.20105 49.489 10.1224C48.6679 11.1584 47.8467 12.1944 46.9145 12.9954C45.8654 13.9111 44.8164 14.8269 43.6544 15.6242C42.4923 16.4215 41.1024 17.0986 39.8292 17.6609C38.4412 18.2214 37.055 18.6654 35.6726 18.8762C34.2883 19.2036 32.7929 19.296 31.4143 19.2738C31.2994 19.2719 31.0696 19.2682 30.9547 19.2663C30.9547 19.2663 30.725 19.2626 30.6101 19.2608L30.3803 19.2571C30.2654 19.2552 30.1505 19.2533 30.0357 19.2515C30.0357 19.2515 30.0357 19.2515 29.9208 19.2496C29.9208 19.2496 29.8059 19.2478 29.691 19.2459C29.691 19.2459 29.4612 19.2422 29.3463 19.2404L29.1166 19.2366C28.8868 19.2329 28.657 19.2292 28.4273 19.2255C28.4273 19.2255 28.3124 19.2236 28.1975 19.2218C28.1975 19.2218 27.9677 19.2181 27.8528 19.2162L27.7379 19.2144C27.7379 19.2144 27.5082 19.2107 27.3933 19.2088C27.3933 19.2088 27.3933 19.2088 27.2784 19.2069C27.2784 19.2069 27.2784 19.2069 27.1635 19.2051C27.1635 19.2051 26.8188 19.1995 26.704 19.1977L26.5891 19.1958C26.5891 19.1958 26.3593 19.1921 26.2444 19.1902C26.2444 19.1902 25.8998 19.1847 25.7849 19.1828C25.7849 19.1828 25.7849 19.1828 25.67 19.181C25.4402 19.1772 25.2123 19.057 24.8696 18.9348C24.8696 18.9348 24.6398 18.9311 24.5268 18.8127C24.5268 18.8127 24.4119 18.8109 24.297 18.809C24.297 18.809 24.1821 18.8072 24.0672 18.8053C23.0389 18.4389 22.0106 18.0726 20.8693 17.5878C20.0707 17.2251 19.2722 16.8625 18.2457 16.3795C17.9029 16.2574 17.675 16.1371 17.4472 16.0169C17.4472 16.0169 17.3323 16.015 17.2193 15.8966C17.2193 15.8966 16.9895 15.8929 16.8765 15.7745C16.6467 15.7708 16.5356 15.5358 16.3058 15.5321C16.3058 15.5321 15.8501 15.2915 15.6222 15.1713C15.3924 15.1676 15.2813 14.9326 15.1664 14.9307C14.0269 14.3294 13.1154 13.8483 12.3168 13.4857C11.4053 13.0046 10.6067 12.6419 9.92118 12.3977C9.12262 12.035 8.55008 11.9092 8.2073 11.7871C7.97753 11.7834 7.74776 11.7796 7.63287 11.7778C7.51799 11.7759 7.4031 11.7741 7.28633 11.8888C7.05091 12.2347 7.61027 13.1765 8.74219 14.244C9.3072 14.8361 10.102 15.4318 10.8968 16.0276C11.8064 16.6252 12.7142 17.3394 13.7407 17.8224C13.7407 17.8224 13.9704 17.8261 14.0816 18.061C14.0816 18.061 14.0816 18.061 14.1965 18.0629C14.4262 18.0666 14.6522 18.3034 14.8801 18.4237C15.1099 18.4274 15.3359 18.6642 15.5638 18.7845C15.5638 18.7845 15.7936 18.7882 15.7917 18.9048C15.7917 18.9048 15.9066 18.9066 16.0214 18.9085C16.3642 19.0306 16.5921 19.1509 16.9349 19.273C17.9613 19.7559 18.8748 20.1204 19.6733 20.4831C20.8146 20.9679 21.9579 21.3361 23.1029 21.5878L23.3327 21.5915L23.5625 21.5952C23.5625 21.5952 23.6774 21.5971 23.7923 21.5989C23.7923 21.5989 23.9072 21.6008 24.022 21.6026C24.3667 21.6082 24.5946 21.7285 24.9374 21.8506C24.9374 21.8506 24.9374 21.8506 25.0522 21.8524C25.1671 21.8543 25.3969 21.858 25.5118 21.8599C25.5118 21.8599 25.8564 21.8654 26.0862 21.8692C26.316 21.8729 26.4309 21.8747 26.6606 21.8784L26.8904 21.8821C26.8904 21.8821 27.0053 21.884 27.1202 21.8859L27.6946 21.8951C27.6946 21.8951 27.9244 21.8989 28.0393 21.9007C28.0393 21.9007 28.1542 21.9026 28.2691 21.9044C28.4988 21.9081 28.8435 21.9137 29.1881 21.9193L29.4179 21.923C29.5328 21.9248 29.6477 21.9267 29.7626 21.9286C29.7626 21.9286 29.8775 21.9304 29.9923 21.9323C29.9923 21.9323 29.9923 21.9323 30.1072 21.9341L30.337 21.9378L28.7211 22.3781ZM53.2012 0.855469C53.2012 0.855469 53.1974 1.08858 53.1918 1.43825C53.1918 1.43825 53.188 1.67136 53.1861 1.78791L53.1842 1.90447C53.1842 1.90447 53.1748 2.48724 53.1692 2.83691C53.1692 2.83691 53.1692 2.83691 53.1673 2.95347L53.1616 3.30313C53.1579 3.53624 53.156 3.6528 53.1522 3.88591C53.1522 3.88591 53.1522 3.88591 53.1503 4.00246L53.1447 4.35213C53.1447 4.35213 53.1428 4.46868 53.026 4.58338C53.0241 4.69994 53.0204 4.93305 52.9036 5.04775L52.6625 5.74337C52.6625 5.74337 52.6625 5.74337 52.6606 5.85992C52.6606 5.85992 52.6588 5.97648 52.6569 6.09304C52.6569 6.09304 52.655 6.20959 52.6531 6.32615L52.6494 6.55926L52.6456 6.79237L52.6418 7.02548L52.6362 7.37514C52.6362 7.37514 52.4007 7.7211 52.284 7.8358C51.8056 8.99393 51.0993 10.0318 50.508 11.0715C49.6849 12.2241 48.8619 13.3766 47.9259 14.4108C46.873 15.5596 45.7091 16.4735 44.5452 17.3874C43.2664 18.2994 41.8746 19.093 40.3697 19.7682C38.8649 20.4434 37.362 21.0021 35.7479 21.3257C34.2488 21.6513 32.6366 21.8584 31.0263 21.949C30.9114 21.9471 30.6817 21.9434 30.5668 21.9415C30.337 21.9378 30.2221 21.936 29.9923 21.9323C29.8775 21.9304 29.7626 21.9286 29.5328 21.9248C29.5328 21.9248 29.5328 21.9248 29.4179 21.923C29.4179 21.923 29.303 21.9211 29.1881 21.9193C29.0733 21.9174 28.9584 21.9156 28.8435 21.9137L28.6137 21.91C28.3839 21.9063 28.0393 21.9007 27.6946 21.8951C27.6946 21.8951 27.5797 21.8933 27.4649 21.8914C27.35 21.8896 27.2351 21.8877 27.1202 21.8859L26.5458 21.8766C26.5458 21.8766 26.4309 21.8747 26.316 21.8729L26.0862 21.8692C25.8564 21.8654 25.7416 21.8636 25.5118 21.8599C25.282 21.8562 25.1671 21.8543 24.9374 21.8506C24.9374 21.8506 24.5927 21.845 24.4778 21.8432C24.4778 21.8432 24.4778 21.8432 24.3629 21.8413C24.0183 21.8357 23.7904 21.7155 23.4476 21.5933C23.4476 21.5933 23.3327 21.5915 23.2178 21.5896C23.2178 21.5896 23.1029 21.5878 22.9881 21.5859L22.7583 21.5822C22.7583 21.5822 22.5285 21.5785 22.5304 21.4619C21.3872 21.0937 20.244 20.7255 19.1008 20.3573C18.1873 19.9927 17.2739 19.6282 16.3623 19.1472C16.0196 19.025 15.7917 18.9048 15.4489 18.7826C15.4489 18.7826 15.334 18.7808 15.2191 18.7789C15.2191 18.7789 14.9894 18.7752 14.9912 18.6587C14.7615 18.6549 14.5355 18.4181 14.3076 18.2979C14.0797 18.1776 13.8518 18.0573 13.6239 17.937C13.6239 17.937 13.6239 17.937 13.509 17.9352C13.3941 17.9333 13.2811 17.8149 13.1681 17.6965C12.1436 17.097 11.2339 16.4994 10.3242 15.9018C9.52944 15.306 8.73465 14.7102 8.16964 14.1182C7.60462 13.5261 7.15261 13.0525 6.93037 12.5825C6.70813 12.1126 6.59702 11.8776 6.71567 11.6464C6.71567 11.6464 6.83244 11.5317 7.06221 11.5354C7.1771 11.5373 7.40687 11.541 7.63664 11.5447C8.09618 11.5521 8.66685 11.7945 9.35051 12.1553C10.0361 12.3995 10.8346 12.7622 11.7462 13.2433C12.5447 13.6059 13.4563 14.087 14.5957 14.6884C14.5957 14.6884 14.8236 14.8086 15.0515 14.9289C15.2813 14.9326 15.5073 15.1694 15.7352 15.2897C15.7352 15.2897 16.0761 15.5284 16.3039 15.6486C16.3039 15.6486 16.5337 15.6523 16.6467 15.7708C16.6467 15.7708 16.7616 15.7726 16.8746 15.891C17.1025 16.0113 17.4453 16.1334 17.6732 16.2537C18.5847 16.7348 19.4982 17.0993 20.2967 17.4619C21.438 17.9467 22.4664 18.3131 23.4947 18.6795C23.4947 18.6795 23.6096 18.6813 23.7245 18.6832C23.7245 18.6832 23.8393 18.685 23.9542 18.6869C24.0691 18.6887 24.184 18.6906 24.2989 18.6925C24.2989 18.6925 24.7565 18.8164 25.0993 18.9386C25.0993 18.9386 25.0993 18.9386 25.2142 18.9404C25.3291 18.9423 25.5589 18.946 25.6738 18.9478C25.6738 18.9478 25.9035 18.9516 26.0184 18.9534L26.1333 18.9553C26.1333 18.9553 26.478 18.9608 26.591 19.0792C26.591 19.0792 26.591 19.0792 26.7058 19.0811C26.7058 19.0811 26.7058 19.0811 26.8207 19.083C26.8207 19.083 27.0505 19.0867 27.1654 19.0885L27.2803 19.0904C27.2803 19.0904 27.51 19.0941 27.6249 19.096C27.6249 19.096 27.7398 19.0978 27.8547 19.0997C28.0845 19.1034 28.3143 19.1071 28.544 19.1108L28.7738 19.1145C28.7738 19.1145 29.0036 19.1182 29.1185 19.1201C29.1185 19.1201 29.2333 19.1219 29.3482 19.1238C29.3482 19.1238 29.3482 19.1238 29.4631 19.1257C29.578 19.1275 29.6929 19.1294 29.8078 19.1312L30.0375 19.1349C30.0375 19.1349 30.2673 19.1386 30.3822 19.1405C30.4971 19.1424 30.7269 19.1461 30.8417 19.1479C32.2204 19.1702 33.7177 18.9612 35.1001 18.7504C36.4843 18.423 37.9835 18.0975 39.2567 17.5351C40.6447 16.9746 41.9198 16.2957 43.0818 15.4984C44.2438 14.701 45.4059 13.9037 46.3419 12.8696C47.2761 11.952 48.2102 11.0344 48.9165 9.99652C49.6209 9.07521 50.2123 8.03549 50.8036 6.99578L50.8074 6.76267C50.8074 6.76267 51.1558 6.53513 51.1596 6.30201C51.1596 6.30201 51.1615 6.18546 51.2783 6.07076L51.2839 5.72109L51.5137 5.72481C51.5137 5.72481 51.5156 5.60825 51.6323 5.49355C51.6323 5.49355 51.6342 5.377 51.6361 5.26044C51.6361 5.26044 51.6361 5.26044 51.638 5.14389L51.6417 4.91078C51.6417 4.91078 51.8753 4.68138 51.8772 4.56482C51.879 4.44827 51.8809 4.33171 51.9977 4.21701C51.9977 4.21701 51.9996 4.10046 52.0015 3.9839C52.0015 3.9839 52.0033 3.86735 52.0052 3.75079L52.009 3.51768L52.2482 2.93862C52.2482 2.93862 52.2501 2.82206 52.252 2.7055L52.2557 2.47239C52.2557 2.47239 52.4949 1.89333 52.4987 1.66022L52.7284 1.66393C52.7284 1.66393 52.7341 1.31427 52.736 1.19771C52.9695 0.968312 53.0863 0.853613 53.2012 0.855469Z" fill="#1A73E9"/>
</svg>
