<svg width="179" height="178" viewBox="0 0 179 178" fill="none" xmlns="http://www.w3.org/2000/svg">
<g opacity="0.08">
<path d="M57.9325 5.89294L6.3457 58.2488C7.60846 54.8167 9.08168 51.4817 10.7411 48.26L48.0167 10.434C51.2059 8.72605 54.5166 7.20427 57.9325 5.89294V5.89294Z" fill="#1A73E9"/>
<path d="M74.6961 1.2793L1.98242 75.0696C2.34668 72.7383 2.79998 70.4314 3.3585 68.1568L67.8157 2.73632C70.0741 2.16161 72.3649 1.66784 74.6961 1.2793Z" fill="#1A73E9"/>
<path d="M88.174 0L0.90625 88.571C0.90625 86.6445 0.979101 84.7342 1.10861 82.8401L82.4512 0.291405C84.3453 0.129513 86.2475 0.0323784 88.174 0V0Z" fill="#1A73E9"/>
<path d="M99.8631 0.534444L1.60286 100.26C1.3924 98.6004 1.23051 96.9167 1.11719 95.225L94.8364 0.113525C96.5281 0.202566 98.2037 0.340174 99.8631 0.534444V0.534444Z" fill="#1A73E9"/>
<path d="M110.304 2.33143L3.56037 110.661C3.18802 109.18 2.84805 107.674 2.55664 106.161L105.787 1.39246C107.309 1.66767 108.814 1.97527 110.304 2.33143V2.33143Z" fill="#1A73E9"/>
<path d="M119.777 5.12381L6.49273 120.091C5.98277 118.748 5.51328 117.38 5.07617 116.004L115.664 3.76392C117.049 4.18483 118.425 4.63004 119.777 5.12381V5.12381Z" fill="#1A73E9"/>
<path d="M128.436 8.72635L10.2311 128.696C9.61595 127.466 9.02504 126.219 8.47461 124.957L124.672 7.02649C125.943 7.56883 127.198 8.13545 128.436 8.72635Z" fill="#1A73E9"/>
<path d="M136.377 13.0646L14.6833 136.58C13.9628 135.455 13.2748 134.305 12.6191 133.148L132.921 11.0571C134.087 11.6966 135.244 12.3685 136.377 13.0646V13.0646Z" fill="#1A73E9"/>
<path d="M143.671 18.059L19.7833 143.8C18.9738 142.78 18.1967 141.728 17.4277 140.668L140.498 15.7601C141.574 16.4967 142.635 17.2657 143.671 18.059Z" fill="#1A73E9"/>
<path d="M150.357 23.6767L25.4896 150.406C24.5911 149.475 23.7249 148.512 22.875 147.54L147.451 21.1027C148.438 21.9283 149.41 22.7863 150.357 23.6767V23.6767Z" fill="#1A73E9"/>
<path d="M156.444 29.8934L31.7957 156.404C30.8163 155.562 29.853 154.696 28.9141 153.805L153.806 27.0522C154.72 27.975 155.594 28.9221 156.444 29.8934Z" fill="#1A73E9"/>
<path d="M161.94 36.717L38.6996 161.795C37.6311 161.042 36.5788 160.265 35.5508 159.463L159.568 33.6006C160.386 34.6205 161.179 35.6566 161.94 36.717V36.717Z" fill="#1A73E9"/>
<path d="M166.814 44.1722L46.2287 166.546C45.0712 165.899 43.9298 165.219 42.8047 164.506L164.717 40.7725C165.446 41.8895 166.142 43.0228 166.814 44.1722Z" fill="#1A73E9"/>
<path d="M171.022 52.2991L54.4272 170.626C53.1644 170.084 51.9179 169.509 50.6875 168.902L169.233 48.5918C169.856 49.8141 170.447 51.0445 171.022 52.2991V52.2991Z" fill="#1A73E9"/>
<path d="M174.479 61.1871L63.3567 173.961C61.9888 173.532 60.6289 173.071 59.2852 172.577L173.03 57.1317C173.548 58.4673 174.034 59.8191 174.479 61.1871Z" fill="#1A73E9"/>
<path d="M177.076 70.9411L73.166 176.406C71.6524 176.122 70.163 175.798 68.6816 175.434L176.032 66.481C176.421 67.9542 176.769 69.4355 177.076 70.9411Z" fill="#1A73E9"/>
<path d="M178.615 81.7875L84.0214 177.789C82.3458 177.684 80.6784 177.53 79.0352 177.328L178.073 76.8093C178.307 78.4525 178.485 80.1119 178.615 81.7875V81.7875Z" fill="#1A73E9"/>
<path d="M178.907 88.9839C178.907 90.6757 178.859 92.3594 178.761 94.0349L96.2694 177.757C94.3996 177.895 92.5136 177.968 90.6113 177.976L178.899 88.3768C178.907 88.5792 178.907 88.7816 178.907 88.9839V88.9839Z" fill="#1A73E9"/>
<path d="M178 101.684C177.676 103.975 177.264 106.241 176.762 108.467L110.678 175.539C108.452 176.081 106.193 176.527 103.902 176.883L178 101.684V101.684Z" fill="#1A73E9"/>
<path d="M174.017 118.124C172.9 121.378 171.589 124.543 170.116 127.611L129.74 168.586C126.68 170.124 123.523 171.484 120.277 172.666L174.017 118.124Z" fill="#1A73E9"/>
</g>
</svg>
