<svg width="138" height="137" viewBox="0 0 138 137" fill="none" xmlns="http://www.w3.org/2000/svg">
<g opacity="0.15">
<path d="M43.8973 4.53711L4.1875 44.8389C5.15953 42.197 6.29356 39.6298 7.5709 37.1499L36.2644 8.03267C38.7194 6.71794 41.2679 5.54652 43.8973 4.53711V4.53711Z" fill="white"/>
<path d="M56.8007 0.984375L0.828125 57.7857C1.10852 55.9912 1.45745 54.2154 1.88739 52.4645L51.5044 2.10595C53.2429 1.66355 55.0062 1.28346 56.8007 0.984375Z" fill="white"/>
<path d="M67.1758 0L0 68.179C0 66.6961 0.0560785 65.2256 0.155774 63.7675L62.7706 0.224314C64.2286 0.0996952 65.6929 0.0249238 67.1758 0V0Z" fill="white"/>
<path d="M76.1734 0.4119L0.535966 77.1772C0.373962 75.8998 0.249343 74.6038 0.162109 73.3015L72.304 0.0878906C73.6063 0.156431 74.8961 0.262357 76.1734 0.4119V0.4119Z" fill="white"/>
<path d="M84.2116 1.79506L2.04412 85.1838C1.7575 84.0436 1.4958 82.8846 1.27148 81.7194L80.7348 1.07227C81.9062 1.28412 83.0651 1.52089 84.2116 1.79506V1.79506Z" fill="white"/>
<path d="M91.5015 3.94426L4.2994 92.4424C3.90685 91.4081 3.54546 90.355 3.20898 89.2958L88.3362 2.89746C89.4017 3.22147 90.461 3.56417 91.5015 3.94426V3.94426Z" fill="white"/>
<path d="M98.1669 6.7167L7.17633 99.0656C6.70278 98.1185 6.24792 97.1589 5.82422 96.1869L95.2695 5.4082C96.2477 5.82568 97.2135 6.26184 98.1669 6.7167Z" fill="white"/>
<path d="M104.281 10.057L10.6045 105.135C10.05 104.269 9.52033 103.384 9.01562 102.493L101.62 8.51172C102.517 9.00396 103.408 9.52113 104.281 10.057V10.057Z" fill="white"/>
<path d="M109.897 13.9014L14.532 110.693C13.9089 109.908 13.3107 109.098 12.7188 108.282L107.454 12.1318C108.283 12.6989 109.099 13.2908 109.897 13.9014Z" fill="white"/>
<path d="M115.041 18.2256L18.9228 115.777C18.2311 115.061 17.5644 114.319 16.9102 113.572L112.804 16.2441C113.565 16.8797 114.312 17.5402 115.041 18.2256V18.2256Z" fill="white"/>
<path d="M119.729 23.0113L23.7788 120.395C23.0248 119.747 22.2833 119.08 21.5605 118.395L117.698 20.8242C118.402 21.5345 119.075 22.2636 119.729 23.0113Z" fill="white"/>
<path d="M123.958 28.2641L29.0918 124.545C28.2693 123.965 27.4593 123.367 26.668 122.75L122.132 25.8652C122.762 26.6503 123.372 27.4479 123.958 28.2641V28.2641Z" fill="white"/>
<path d="M127.71 34.0018L34.8876 128.201C33.9966 127.703 33.1181 127.179 32.252 126.631L126.096 31.3848C126.657 32.2446 127.193 33.117 127.71 34.0018Z" fill="white"/>
<path d="M130.95 40.2581L41.199 131.342C40.227 130.925 39.2674 130.482 38.3203 130.015L129.573 37.4043C130.052 38.3452 130.507 39.2923 130.95 40.2581V40.2581Z" fill="white"/>
<path d="M133.612 47.1002L48.0736 133.91C47.0206 133.58 45.9738 133.224 44.9395 132.844L132.497 43.9785C132.896 45.0066 133.269 46.0472 133.612 47.1002Z" fill="white"/>
<path d="M135.611 54.6081L55.6238 135.791C54.4586 135.573 53.3121 135.324 52.1719 135.043L134.807 51.1748C135.106 52.3088 135.374 53.4491 135.611 54.6081Z" fill="white"/>
<path d="M136.794 62.957L63.9789 136.856C62.6891 136.775 61.4055 136.657 60.1406 136.501L136.376 59.125C136.557 60.3899 136.694 61.6672 136.794 62.957V62.957Z" fill="white"/>
<path d="M137.02 68.4966C137.02 69.7989 136.983 71.0949 136.908 72.3847L73.4082 136.831C71.9688 136.937 70.517 136.993 69.0527 137L137.014 68.0293C137.02 68.1851 137.02 68.3408 137.02 68.4966V68.4966Z" fill="white"/>
<path d="M136.321 78.2734C136.072 80.0368 135.754 81.7815 135.368 83.495L84.4985 135.125C82.785 135.542 81.0466 135.885 79.2832 136.159L136.321 78.2734V78.2734Z" fill="white"/>
<path d="M133.254 90.9277C132.394 93.4326 131.385 95.8689 130.251 98.2304L99.1707 129.771C96.8154 130.955 94.3853 132.002 91.8867 132.912L133.254 90.9277Z" fill="white"/>
</g>
</svg>
