<svg width="30" height="34" viewBox="0 0 30 34" fill="none" xmlns="http://www.w3.org/2000/svg">
<path fill-rule="evenodd" clip-rule="evenodd" d="M18.4495 30.7019C18.1558 29.866 17.3616 29.267 16.4286 29.267H13.5717C12.3881 29.267 11.4289 30.2304 11.4289 31.4191C11.4289 32.6079 12.3881 33.5713 13.5717 33.5713H16.4286C17.3616 33.5713 18.1558 32.9722 18.4495 32.1366H23.5715C27.1222 32.1366 30 29.2463 30 25.6801V15.6351C30 11.6399 28.4199 7.80806 25.6072 4.9832C22.7945 2.15804 18.9797 0.571289 15.0014 0.571289H15C11.0214 0.571289 7.20617 2.15804 4.39354 4.98394C1.58013 7.80886 0 11.6402 0 15.6365V24.2451C0 26.2257 1.59923 27.8319 3.57131 27.8319H5.00003C6.18361 27.8319 7.14286 26.8685 7.14286 25.6798V17.0712C7.14286 15.8824 6.18361 14.919 5.00003 14.919H3.57131C2.76701 14.919 2.02565 15.1859 1.42847 15.6365C1.42847 12.0215 2.8586 8.55405 5.40349 5.99853C7.94857 3.44238 11.4005 2.00622 14.9997 2.00622H15.0011C18.6004 2.00622 22.0517 3.44232 24.5968 5.99779C27.1409 8.55368 28.571 12.0202 28.571 15.6351V15.6366C27.9739 15.186 27.2325 14.9191 26.4282 14.9191H24.9995C23.8159 14.9191 22.8567 15.8825 22.8567 17.0713V25.6799C22.8567 26.8686 23.8159 27.832 24.9995 27.832H26.4282C27.1175 27.832 27.7603 27.6363 28.3061 27.2969C27.636 29.2768 25.7696 30.7016 23.571 30.7016L18.4495 30.7019ZM17.143 31.4191C17.143 31.0233 16.823 30.7019 16.4286 30.7019H13.5717C13.1773 30.7019 12.8573 31.0233 12.8573 31.4191C12.8573 31.8152 13.1773 32.1366 13.5717 32.1366H16.4286C16.823 32.1366 17.143 31.8152 17.143 31.4191ZM5.71435 17.0717V25.6803C5.71435 26.0764 5.39436 26.3977 5.00024 26.3977H3.57152C2.38794 26.3977 1.42868 25.4343 1.42868 24.2456V18.5063C1.42868 17.3176 2.38794 16.3542 3.57152 16.3542H5.00024C5.39437 16.3542 5.71435 16.6756 5.71435 17.0717V17.0717ZM28.5716 18.5063V24.2456C28.5716 25.4343 27.6124 26.3977 26.4288 26.3977H25.0001C24.606 26.3977 24.286 26.0764 24.286 25.6803V17.0717C24.286 16.6756 24.606 16.3542 25.0001 16.3542H26.4288C27.6124 16.3542 28.5716 17.3176 28.5716 18.5063Z" fill="#1A73E9"/>
<path fill-rule="evenodd" clip-rule="evenodd" d="M17.8885 22.84L18.9251 23.0997C19.5093 23.2466 20.1271 23.0744 20.5527 22.6469C20.9784 22.2193 21.1499 21.5989 21.0036 21.0121L20.745 19.9711C21.1822 19.0987 21.4293 18.1139 21.4293 17.0707C21.4293 13.5074 18.5486 10.6143 15.0008 10.6143C11.4529 10.6143 8.57227 13.5074 8.57227 17.0707C8.57227 20.634 11.4529 23.5272 15.0008 23.5272C16.0394 23.5272 17.0199 23.279 17.8886 22.84L17.8885 22.84ZM17.9687 21.3808C17.7914 21.3364 17.6042 21.3614 17.4449 21.4519C16.7222 21.86 15.8885 22.0925 15.0007 22.0925C12.2416 22.0925 10.0007 19.8419 10.0007 17.0708C10.0007 14.2997 12.2416 12.049 15.0007 12.049C17.7598 12.049 20.0007 14.2997 20.0007 17.0708C20.0007 17.9624 19.7692 18.7997 19.3629 19.5256C19.2728 19.6855 19.2479 19.8736 19.2921 20.0516C19.2921 20.0516 19.4493 20.6829 19.6179 21.3599C19.642 21.4574 19.6136 21.561 19.5428 21.6325C19.4715 21.7036 19.3684 21.7322 19.2713 21.708C18.5971 21.5386 17.9687 21.3808 17.9687 21.3808L17.9687 21.3808Z" fill="#1A73E9"/>
<path fill-rule="evenodd" clip-rule="evenodd" d="M15.7139 17.071C15.7139 17.4671 15.3939 17.7884 14.9995 17.7884C14.6051 17.7884 14.2852 17.4671 14.2852 17.071C14.2852 16.6749 14.6051 16.3535 14.9995 16.3535C15.3939 16.3535 15.7139 16.6749 15.7139 17.071Z" fill="#1A73E9"/>
<path fill-rule="evenodd" clip-rule="evenodd" d="M18.5711 17.071C18.5711 17.4671 18.2513 17.7884 17.8569 17.7884C17.4623 17.7884 17.1426 17.4671 17.1426 17.071C17.1426 16.6749 17.4623 16.3535 17.8569 16.3535C18.2513 16.3535 18.5711 16.6749 18.5711 17.071Z" fill="#1A73E9"/>
<path fill-rule="evenodd" clip-rule="evenodd" d="M12.8562 17.071C12.8562 17.4671 12.5365 17.7884 12.1418 17.7884C11.7475 17.7884 11.4277 17.4671 11.4277 17.071C11.4277 16.6749 11.7475 16.3535 12.1418 16.3535C12.5365 16.3535 12.8562 16.6749 12.8562 17.071Z" fill="#1A73E9"/>
</svg>
