<svg width="68" height="40" viewBox="0 0 68 40" fill="none" xmlns="http://www.w3.org/2000/svg">
<path d="M12.14 33.6496C12.14 34.1489 12.077 34.6389 11.951 35.1196C11.825 35.6002 11.636 36.0389 11.384 36.4356C11.132 36.8322 10.817 37.1612 10.439 37.4226C10.061 37.6792 9.61767 37.8332 9.109 37.8846L9.109 35.7916C9.417 35.7216 9.676 35.5886 9.886 35.3926C10.096 35.1966 10.257 34.9492 10.369 34.6506C10.481 34.3519 10.537 34.0206 10.537 33.6566C10.537 33.2832 10.4903 32.9426 10.397 32.6346C10.3037 32.3266 10.1637 32.0792 9.977 31.8926C9.78567 31.7059 9.54767 31.6126 9.263 31.6126C9.00633 31.6126 8.79633 31.6896 8.633 31.8436C8.46967 31.9929 8.33667 32.1959 8.234 32.4526C8.13133 32.7092 8.04733 33.0009 7.982 33.3276L7.625 35.0776C7.48033 35.8429 7.177 36.4496 6.715 36.8976C6.24833 37.3456 5.62767 37.5766 4.853 37.5906C4.21833 37.5952 3.67 37.4272 3.208 37.0866C2.74133 36.7412 2.382 36.2746 2.13 35.6866C1.878 35.0939 1.752 34.4312 1.752 33.6986C1.752 32.8259 1.88967 32.0932 2.165 31.5006C2.43567 30.9032 2.80433 30.4506 3.271 30.1426C3.733 29.8299 4.24867 29.6689 4.818 29.6596L4.818 31.7106C4.46333 31.7479 4.181 31.8552 3.971 32.0326C3.761 32.2099 3.60933 32.4386 3.516 32.7186C3.42267 32.9939 3.376 33.3089 3.376 33.6636C3.376 33.9342 3.40633 34.1816 3.467 34.4056C3.52767 34.6249 3.614 34.8116 3.726 34.9656C3.83333 35.1196 3.96167 35.2386 4.111 35.3226C4.26033 35.4066 4.42833 35.4486 4.615 35.4486C4.909 35.4486 5.147 35.3506 5.329 35.1546C5.511 34.9586 5.66033 34.5922 5.777 34.0556L6.134 32.3196C6.25533 31.6989 6.435 31.2066 6.673 30.8426C6.911 30.4739 7.17933 30.1986 7.478 30.0166C7.77667 29.8299 8.08233 29.7086 8.395 29.6526C8.703 29.5919 8.98767 29.5616 9.249 29.5616C9.795 29.5616 10.2873 29.7342 10.726 30.0796C11.16 30.4202 11.5053 30.8962 11.762 31.5076C12.014 32.1189 12.14 32.8329 12.14 33.6496ZM4.622 24.2836C4.622 23.6769 4.74567 23.1542 4.993 22.7156C5.24033 22.2722 5.574 21.9246 5.994 21.6726C6.414 21.4159 6.883 21.2689 7.401 21.2316L7.401 22.9326C7.20967 22.9652 7.02067 23.0329 6.834 23.1356C6.64267 23.2382 6.48633 23.3829 6.365 23.5696C6.239 23.7562 6.176 23.9896 6.176 24.2696C6.176 24.7456 6.36033 25.1329 6.729 25.4316C7.093 25.7256 7.64833 25.8726 8.395 25.8726C9.09967 25.8726 9.65967 25.7279 10.075 25.4386C10.4857 25.1492 10.691 24.7456 10.691 24.2276C10.691 23.9522 10.6233 23.7236 10.488 23.5416C10.3527 23.3549 10.1917 23.2102 10.005 23.1076C9.81367 23.0049 9.63633 22.9396 9.473 22.9116L9.473 21.2526C9.97233 21.2852 10.425 21.4299 10.831 21.6866C11.2323 21.9432 11.552 22.2932 11.79 22.7366C12.0233 23.1752 12.14 23.6909 12.14 24.2836C12.14 24.9556 11.9907 25.5552 11.692 26.0826C11.3933 26.6099 10.9663 27.0252 10.411 27.3286C9.851 27.6272 9.18367 27.7766 8.409 27.7766C7.66233 27.7766 7.00433 27.6319 6.435 27.3426C5.86567 27.0532 5.42233 26.6472 5.105 26.1246C4.783 25.5972 4.622 24.9836 4.622 24.2836ZM12 19.124L4.762 19.124L4.762 17.157L6.477 17.157C6.10833 17.0404 5.78633 16.877 5.511 16.667C5.231 16.4524 5.014 16.1934 4.86 15.89C4.70133 15.5867 4.622 15.2437 4.622 14.861C4.622 14.7957 4.62667 14.735 4.636 14.679C4.64067 14.6184 4.65 14.574 4.664 14.546L6.61 14.546C6.59133 14.588 6.57967 14.6394 6.575 14.7C6.57033 14.756 6.56567 14.8074 6.561 14.854C6.52833 15.2554 6.54 15.5984 6.596 15.883C6.652 16.1677 6.74767 16.3987 6.883 16.576C7.01833 16.7534 7.184 16.8817 7.38 16.961C7.576 17.0404 7.79533 17.08 8.038 17.08L12 17.08L12 19.124ZM12.14 9.65587C12.14 10.3652 11.9883 10.9835 11.685 11.5109C11.3817 12.0335 10.9523 12.4395 10.397 12.7289C9.84167 13.0135 9.18367 13.1559 8.423 13.1559C7.66233 13.1559 6.99733 13.0135 6.428 12.7289C5.85867 12.4395 5.41533 12.0335 5.098 11.5109C4.78067 10.9835 4.622 10.3629 4.622 9.64887C4.622 8.93487 4.77833 8.31653 5.091 7.79387C5.399 7.2712 5.83766 6.86753 6.407 6.58287C6.97633 6.2982 7.64833 6.15587 8.423 6.15587C9.151 6.15587 9.795 6.29587 10.355 6.57587C10.9103 6.8512 11.3467 7.2502 11.664 7.77287C11.9813 8.29087 12.14 8.91853 12.14 9.65587ZM10.621 9.64887C10.621 9.28953 10.516 9.0002 10.306 8.78087C10.096 8.56153 9.82067 8.40287 9.48 8.30487C9.13467 8.2022 8.759 8.15087 8.353 8.15087C7.97033 8.15087 7.60866 8.19753 7.268 8.29087C6.92733 8.37953 6.652 8.53353 6.442 8.75287C6.232 8.9722 6.127 9.27087 6.127 9.64887C6.127 10.0082 6.22733 10.2999 6.428 10.5239C6.624 10.7432 6.89233 10.9042 7.233 11.0069C7.569 11.1095 7.94233 11.1609 8.353 11.1609C8.731 11.1609 9.095 11.1142 9.445 11.0209C9.79033 10.9275 10.0727 10.7712 10.292 10.5519C10.5113 10.3325 10.621 10.0315 10.621 9.64887ZM12.126 1.78316C12.126 2.31516 12.063 2.7375 11.937 3.05016C11.811 3.36283 11.6453 3.59383 11.44 3.74316C11.23 3.8925 10.999 3.98816 10.747 4.03016C10.4903 4.07216 10.2313 4.09316 9.97 4.09316L1.598 4.09316L1.598 2.09116L9.718 2.09116C9.984 2.09116 10.201 2.03516 10.369 1.92316C10.5323 1.8065 10.6327 1.5895 10.67 1.27216L10.691 0.929162L11.951 0.929162C11.9977 1.06916 12.0373 1.2115 12.07 1.35616C12.1073 1.50083 12.126 1.64316 12.126 1.78316Z" fill="#0F00BF"/>
<path d="M55.878 38.4756C55.878 38.4242 55.878 38.2819 55.878 38.0486C55.878 37.8106 55.878 37.5329 55.878 37.2156C55.878 36.8936 55.8803 36.5739 55.885 36.2566C55.885 35.9346 55.8873 35.6662 55.892 35.4516C55.92 34.2242 56.1393 33.2232 56.55 32.4486C56.9607 31.6739 57.5347 31.1069 58.272 30.7476C59.0093 30.3836 59.882 30.2016 60.89 30.2016C61.94 30.2016 62.8477 30.3929 63.613 30.7756C64.3737 31.1582 64.9617 31.7439 65.377 32.5326C65.7923 33.3166 66 34.3129 66 35.5216L66 38.4756L55.878 38.4756ZM57.53 36.4176L64.348 36.4176L64.348 35.4796C64.348 34.9009 64.236 34.3759 64.012 33.9046C63.788 33.4286 63.4217 33.0482 62.913 32.7636C62.4043 32.4789 61.7253 32.3366 60.876 32.3366C60.0873 32.3366 59.448 32.4626 58.958 32.7146C58.4633 32.9666 58.1017 33.3259 57.873 33.7926C57.6443 34.2592 57.53 34.8122 57.53 35.4516L57.53 36.4176ZM66.14 24.8504C66.14 25.5597 65.9883 26.1781 65.685 26.7054C65.3817 27.2281 64.9523 27.6341 64.397 27.9234C63.8417 28.2081 63.1837 28.3504 62.423 28.3504C61.6623 28.3504 60.9973 28.2081 60.428 27.9234C59.8587 27.6341 59.4153 27.2281 59.098 26.7054C58.7807 26.1781 58.622 25.5574 58.622 24.8434C58.622 24.1294 58.7783 23.5111 59.091 22.9884C59.399 22.4657 59.8377 22.0621 60.407 21.7774C60.9763 21.4927 61.6483 21.3504 62.423 21.3504C63.151 21.3504 63.795 21.4904 64.355 21.7704C64.9103 22.0457 65.3467 22.4447 65.664 22.9674C65.9813 23.4854 66.14 24.1131 66.14 24.8504ZM64.621 24.8434C64.621 24.4841 64.516 24.1947 64.306 23.9754C64.096 23.7561 63.8207 23.5974 63.48 23.4994C63.1347 23.3967 62.759 23.3454 62.353 23.3454C61.9703 23.3454 61.6087 23.3921 61.268 23.4854C60.9273 23.5741 60.652 23.7281 60.442 23.9474C60.232 24.1667 60.127 24.4654 60.127 24.8434C60.127 25.2027 60.2273 25.4944 60.428 25.7184C60.624 25.9377 60.8923 26.0987 61.233 26.2014C61.569 26.3041 61.9423 26.3554 62.353 26.3554C62.731 26.3554 63.095 26.3087 63.445 26.2154C63.7903 26.1221 64.0727 25.9657 64.292 25.7464C64.5113 25.5271 64.621 25.2261 64.621 24.8434ZM58.762 9.60648L66 11.9865L66 13.6105L61.618 14.9615L66 16.3055L66 17.8875L58.762 20.2325L58.762 18.4265L63.249 17.0405L63.249 16.9845L58.762 15.6545L58.762 14.1985L63.249 12.8545L63.249 12.7985L58.762 11.4545L58.762 9.60648ZM66 7.81426L58.762 7.81426L58.762 5.80526L59.784 5.80526C59.6067 5.69326 59.4363 5.54859 59.273 5.37126C59.105 5.18926 58.9673 4.96059 58.86 4.68526C58.7527 4.40992 58.699 4.08326 58.699 3.70526C58.699 3.26192 58.7853 2.84892 58.958 2.46626C59.1307 2.07892 59.4037 1.76626 59.777 1.52826C60.1457 1.29026 60.6287 1.17126 61.226 1.17126L66 1.17126L66 3.21526L61.478 3.21526C61.086 3.21526 60.792 3.33192 60.596 3.56526C60.4 3.79859 60.302 4.08326 60.302 4.41926C60.302 4.64326 60.3417 4.86026 60.421 5.07026C60.5003 5.27559 60.6193 5.44359 60.778 5.57426C60.9367 5.70492 61.1327 5.77026 61.366 5.77026L66 5.77026L66 7.81426Z" fill="#0F00BF"/>
</svg>
