<svg width="209" height="94" viewBox="0 0 209 94" fill="none" xmlns="http://www.w3.org/2000/svg">
<g opacity="0.8">
<path d="M200.484 94V78.4221" stroke="#5463FF" stroke-miterlimit="10"/>
<path d="M192.703 86.2032H208.281" stroke="#5463FF" stroke-miterlimit="10"/>
<path d="M168.529 94V78.4221" stroke="#5463FF" stroke-miterlimit="10"/>
<path d="M160.732 86.2032H176.31" stroke="#5463FF" stroke-miterlimit="10"/>
<path d="M136.557 94V78.4221" stroke="#5463FF" stroke-miterlimit="10"/>
<path d="M128.775 86.2032H144.353" stroke="#5463FF" stroke-miterlimit="10"/>
<path d="M104.602 94V78.4221" stroke="#5463FF" stroke-miterlimit="10"/>
<path d="M96.8047 86.2032H112.383" stroke="#5463FF" stroke-miterlimit="10"/>
<path d="M72.6309 94V78.4221" stroke="#5463FF" stroke-miterlimit="10"/>
<path d="M64.834 86.2032H80.4118" stroke="#5463FF" stroke-miterlimit="10"/>
<path d="M40.6582 94V78.4221" stroke="#5463FF" stroke-miterlimit="10"/>
<path d="M32.877 86.2032H48.4548" stroke="#5463FF" stroke-miterlimit="10"/>
<path d="M8.70312 94V78.4221" stroke="#5463FF" stroke-miterlimit="10"/>
<path d="M0.90625 86.2032H16.4841" stroke="#5463FF" stroke-miterlimit="10"/>
<path d="M200.484 54.7969V39.2034" stroke="#FF413D" stroke-miterlimit="10"/>
<path d="M192.703 47.0002H208.281" stroke="#FF413D" stroke-miterlimit="10"/>
<path d="M168.529 54.7969V39.2034" stroke="#FF413D" stroke-miterlimit="10"/>
<path d="M160.732 47.0002H176.31" stroke="#FF413D" stroke-miterlimit="10"/>
<path d="M136.557 54.7969V39.2034" stroke="#FF413D" stroke-miterlimit="10"/>
<path d="M128.775 47.0002H144.353" stroke="#FF413D" stroke-miterlimit="10"/>
<path d="M104.602 54.7969V39.2034" stroke="#FF413D" stroke-miterlimit="10"/>
<path d="M96.8047 47.0002H112.383" stroke="#FF413D" stroke-miterlimit="10"/>
<path d="M72.6309 54.7969V39.2034" stroke="#FF413D" stroke-miterlimit="10"/>
<path d="M64.834 47.0002H80.4118" stroke="#FF413D" stroke-miterlimit="10"/>
<path d="M40.6582 54.7969V39.2034" stroke="#FF413D" stroke-miterlimit="10"/>
<path d="M32.877 47.0002H48.4548" stroke="#FF413D" stroke-miterlimit="10"/>
<path d="M8.70312 54.7969V39.2033" stroke="#FF413D" stroke-miterlimit="10"/>
<path d="M0.90625 47.0001H16.4841" stroke="#FF413D" stroke-miterlimit="10"/>
<path d="M200.484 15.5779V0" stroke="#1A73E9" stroke-miterlimit="10"/>
<path d="M192.703 7.79675H208.281" stroke="#1A73E9" stroke-miterlimit="10"/>
<path d="M168.529 15.5779V0" stroke="#1A73E9" stroke-miterlimit="10"/>
<path d="M160.732 7.79675H176.31" stroke="#1A73E9" stroke-miterlimit="10"/>
<path d="M136.557 15.5779V0" stroke="#1A73E9" stroke-miterlimit="10"/>
<path d="M128.775 7.79675H144.353" stroke="#1A73E9" stroke-miterlimit="10"/>
<path d="M104.602 15.5779V0" stroke="#1A73E9" stroke-miterlimit="10"/>
<path d="M96.8047 7.79675H112.383" stroke="#1A73E9" stroke-miterlimit="10"/>
<path d="M72.6309 15.5779V0" stroke="#1A73E9" stroke-miterlimit="10"/>
<path d="M64.834 7.79675H80.4118" stroke="#1A73E9" stroke-miterlimit="10"/>
<path d="M40.6582 15.5779V0" stroke="#1A73E9" stroke-miterlimit="10"/>
<path d="M32.877 7.79675H48.4548" stroke="#1A73E9" stroke-miterlimit="10"/>
<path d="M8.70312 15.5779V0" stroke="#1A73E9" stroke-miterlimit="10"/>
<path d="M0.90625 7.79675H16.4841" stroke="#1A73E9" stroke-miterlimit="10"/>
</g>
</svg>
