<svg width="130" height="25" viewBox="0 0 130 25" fill="none" xmlns="http://www.w3.org/2000/svg">
<path d="M16.0391 24.6738C15.9316 24.8691 15.7705 24.9668 15.5557 24.9668C15.3799 24.9668 15.2432 24.9082 15.1455 24.791C15.0479 24.6836 14.999 24.5518 14.999 24.3955C14.999 24.376 15.0039 24.1758 15.0137 23.7949C15.0234 23.4043 15.0283 22.8818 15.0283 22.2275C15.0283 21.3975 15.0283 20.5137 15.0283 19.5762C15.0381 18.6387 15.0283 17.6865 14.999 16.7197C14.9697 15.7529 14.9062 14.791 14.8086 13.834C14.7109 12.877 14.5596 11.9639 14.3545 11.0947C14.1494 10.2158 13.8809 9.40039 13.5488 8.64844C13.2168 7.89648 12.792 7.24707 12.2744 6.7002C11.7568 6.14355 11.1416 5.70898 10.4287 5.39648C9.71582 5.08398 8.87598 4.92773 7.90918 4.92773C6.96191 4.92773 6.09766 5.09375 5.31641 5.42578C4.53516 5.74805 3.86133 6.1875 3.29492 6.74414C2.73828 7.29102 2.30371 7.93555 1.99121 8.67773C1.68848 9.41016 1.53711 10.1865 1.53711 11.0068C1.53711 11.7197 1.65918 12.3789 1.90332 12.9844C2.15723 13.5801 2.49902 14.0977 2.92871 14.5371C3.3584 14.9766 3.85645 15.3232 4.42285 15.5771C4.99902 15.8213 5.60938 15.9434 6.25391 15.9434C6.73242 15.9434 7.17188 15.8799 7.57227 15.7529C7.97266 15.6162 8.31445 15.4697 8.59766 15.3135C8.88086 15.1572 9.10059 15.0156 9.25684 14.8887C9.41309 14.752 9.49609 14.6836 9.50586 14.6836C9.61328 14.5762 9.74512 14.5225 9.90137 14.5225C10.0479 14.5225 10.1748 14.5762 10.2822 14.6836C10.3896 14.7812 10.4434 14.9033 10.4434 15.0498C10.4434 15.1963 10.3896 15.3232 10.2822 15.4307C10.2627 15.4502 10.1504 15.5479 9.94531 15.7236C9.75 15.8896 9.47656 16.0703 9.125 16.2656C8.77344 16.4609 8.35352 16.6367 7.86523 16.793C7.38672 16.9492 6.85449 17.0273 6.26855 17.0273C5.45801 17.0273 4.69629 16.876 3.9834 16.5732C3.28027 16.2705 2.66504 15.8506 2.1377 15.3135C1.61035 14.7764 1.19043 14.1416 0.87793 13.4092C0.575195 12.667 0.423828 11.8662 0.423828 11.0068C0.423828 10.0303 0.609375 9.10742 0.980469 8.23828C1.36133 7.36914 1.88379 6.6123 2.54785 5.96777C3.21191 5.31348 3.99316 4.80078 4.8916 4.42969C5.7998 4.04883 6.78613 3.8584 7.85059 3.8584C9.22754 3.8584 10.3896 4.10742 11.3369 4.60547C12.2842 5.09375 13.0654 5.75293 13.6807 6.58301C14.3057 7.40332 14.7842 8.35547 15.1162 9.43945C15.458 10.5137 15.707 11.6367 15.8633 12.8086C16.0195 13.9805 16.1123 15.1621 16.1416 16.3535C16.1709 17.5352 16.1855 18.6484 16.1855 19.6934C16.1855 19.8887 16.1855 20.0986 16.1855 20.3232C16.1855 20.5479 16.1807 20.7725 16.1709 20.9971C16.1709 21.2217 16.166 21.4365 16.1562 21.6416C16.1562 21.8369 16.1562 21.998 16.1562 22.125L25.9707 3.96094C26.0586 3.77539 26.2148 3.68262 26.4395 3.68262C26.6055 3.68262 26.7373 3.74121 26.835 3.8584C26.9424 3.96582 26.9961 4.09277 26.9961 4.23926C26.9961 4.28809 26.9668 4.46875 26.9082 4.78125C26.8496 5.08398 26.7764 5.48926 26.6885 5.99707C26.6104 6.50488 26.5225 7.0957 26.4248 7.76953C26.3271 8.43359 26.2344 9.15137 26.1465 9.92285C26.0684 10.6943 26 11.5 25.9414 12.3398C25.8828 13.1699 25.8535 14 25.8535 14.8301C25.8535 16.2266 25.9268 17.4668 26.0732 18.5508C26.2197 19.625 26.459 20.5332 26.791 21.2754C27.123 22.0176 27.5576 22.5791 28.0947 22.96C28.6416 23.3408 29.3105 23.5312 30.1016 23.5312C30.8145 23.5312 31.4932 23.3799 32.1377 23.0771C32.7822 22.7646 33.3828 22.3398 33.9395 21.8027C34.4961 21.2656 35.0137 20.6357 35.4922 19.9131C35.9707 19.1904 36.4004 18.4141 36.7812 17.584C37.1719 16.7441 37.5137 15.875 37.8066 14.9766C38.1094 14.0781 38.3584 13.1846 38.5537 12.2959C38.7588 11.4072 38.9102 10.543 39.0078 9.70312C39.1152 8.86328 39.1689 8.0918 39.1689 7.38867C39.1689 6.11914 39.0225 4.95215 38.7295 3.8877C38.4463 2.81348 37.9873 1.93945 37.3525 1.26562C37.2549 1.16797 37.2061 1.0459 37.2061 0.899414C37.2061 0.743164 37.2598 0.611328 37.3672 0.503906C37.4844 0.396484 37.6162 0.342773 37.7627 0.342773C37.9287 0.342773 38.0605 0.396484 38.1582 0.503906C38.5293 0.904297 38.8467 1.3584 39.1104 1.86621C39.3838 2.36426 39.6035 2.91113 39.7695 3.50684C39.9453 4.09277 40.0723 4.71289 40.1504 5.36719C40.2383 6.02148 40.2822 6.7002 40.2822 7.40332C40.2822 8.47754 40.1797 9.64941 39.9746 10.9189C39.7695 12.1787 39.4668 13.4482 39.0664 14.7275C38.666 15.9971 38.1729 17.2275 37.5869 18.4189C37.0107 19.6104 36.3418 20.665 35.5801 21.583C34.8281 22.4912 33.9932 23.2236 33.0752 23.7803C32.1572 24.3271 31.166 24.6006 30.1016 24.6006C29.0957 24.6006 28.251 24.376 27.5674 23.9268C26.8838 23.4678 26.332 22.8135 25.9121 21.9639C25.502 21.1045 25.2041 20.0645 25.0186 18.8438C24.8428 17.623 24.7549 16.2461 24.7549 14.7129C24.7549 14.0781 24.7744 13.4238 24.8135 12.75C24.8623 12.0762 24.916 11.417 24.9746 10.7725C25.043 10.1279 25.1113 9.50781 25.1797 8.91211C25.2578 8.31641 25.3311 7.7793 25.3994 7.30078L16.0391 24.6738ZM47.4043 22.3887C47.6094 22.6719 47.873 22.9014 48.1953 23.0771C48.5176 23.2432 48.9131 23.3262 49.3818 23.3262C49.8604 23.3262 50.2949 23.2139 50.6855 22.9893C51.0762 22.7549 51.4326 22.4521 51.7549 22.0811C52.0771 21.71 52.3652 21.2949 52.6191 20.8359C52.873 20.377 53.1025 19.918 53.3076 19.459C53.3564 19.3516 53.4248 19.2734 53.5127 19.2246C53.6006 19.166 53.6982 19.1367 53.8057 19.1367C53.9717 19.1367 54.1035 19.1953 54.2012 19.3125C54.3086 19.4297 54.3623 19.5566 54.3623 19.6934C54.3623 19.7422 54.3574 19.7861 54.3477 19.8252C54.3379 19.8545 54.3232 19.8887 54.3037 19.9277C53.6299 21.4121 52.8926 22.5303 52.0918 23.2822C51.3008 24.0342 50.4023 24.4199 49.3965 24.4395C48.752 24.4395 48.1953 24.3125 47.7266 24.0586C47.2578 23.8145 46.8721 23.4971 46.5693 23.1064C46.2666 22.7061 46.042 22.2568 45.8955 21.7588C45.749 21.2607 45.6758 20.7627 45.6758 20.2646C45.6758 19.7666 45.7344 19.3076 45.8516 18.8877C45.9785 18.4678 46.1543 18.1016 46.3789 17.7891C46.6133 17.4766 46.8867 17.2324 47.1992 17.0566C47.5215 16.8809 47.873 16.793 48.2539 16.793C48.4785 16.793 48.6982 16.8418 48.9131 16.9395C49.1377 17.0273 49.3379 17.1592 49.5137 17.335C49.6895 17.501 49.8311 17.7061 49.9385 17.9502C50.0459 18.1943 50.0996 18.4727 50.0996 18.7852C50.0996 19.1855 50.0312 19.5615 49.8945 19.9131C49.7578 20.2646 49.5674 20.5918 49.3232 20.8945C49.0889 21.1973 48.8057 21.4756 48.4736 21.7295C48.1416 21.9834 47.7852 22.2031 47.4043 22.3887ZM46.9648 21.4365C47.2676 21.3096 47.541 21.1484 47.7852 20.9531C48.0391 20.7578 48.2539 20.543 48.4297 20.3086C48.6055 20.0742 48.7422 19.8301 48.8398 19.5762C48.9375 19.3125 48.9863 19.0488 48.9863 18.7852C48.9863 18.4922 48.9131 18.2725 48.7666 18.126C48.6201 17.9697 48.4492 17.8916 48.2539 17.8916C47.9902 17.8916 47.7656 17.9648 47.5801 18.1113C47.3945 18.2578 47.2432 18.4482 47.126 18.6826C47.0088 18.917 46.9209 19.1807 46.8623 19.4736C46.8135 19.7568 46.7891 20.04 46.7891 20.3232C46.7891 20.499 46.8037 20.6846 46.833 20.8799C46.8721 21.0752 46.916 21.2607 46.9648 21.4365ZM66.1572 19.9424C66.0498 20.167 65.9131 20.4355 65.7471 20.748C65.5908 21.0508 65.4102 21.3682 65.2051 21.7002C65 22.0322 64.7705 22.3643 64.5166 22.6963C64.2627 23.0186 63.9844 23.3115 63.6816 23.5752C63.3887 23.8291 63.0713 24.0342 62.7295 24.1904C62.3975 24.3564 62.041 24.4395 61.6602 24.4395C61.0742 24.4395 60.5713 24.2588 60.1514 23.8975C59.7314 23.5361 59.375 23.0625 59.082 22.4766C58.7891 21.8906 58.5498 21.2266 58.3643 20.4844C58.1885 19.7324 58.0518 18.9707 57.9541 18.1992C57.8564 17.418 57.7881 16.6611 57.749 15.9287C57.7197 15.1963 57.7051 14.5469 57.7051 13.9805C57.7051 13.1602 57.7295 12.3105 57.7783 11.4316C57.8369 10.5527 57.9248 9.69336 58.042 8.85352C58.1592 8.01367 58.3057 7.21777 58.4814 6.46582C58.667 5.71387 58.8818 5.05469 59.126 4.48828C59.3799 3.92187 59.668 3.47266 59.9902 3.14062C60.3125 2.80859 60.6787 2.64258 61.0889 2.64258C61.4111 2.64258 61.6992 2.7207 61.9531 2.87695C62.2168 3.02344 62.4365 3.26758 62.6123 3.60938C62.7881 3.95117 62.9248 4.39551 63.0225 4.94238C63.1201 5.48926 63.1689 6.1582 63.1689 6.94922C63.1689 7.92578 63.0664 8.93652 62.8613 9.98145C62.6562 11.0166 62.3779 12.0615 62.0264 13.1162C61.6748 14.1709 61.2598 15.2256 60.7812 16.2803C60.3027 17.3252 59.79 18.3457 59.2432 19.3418C59.4873 20.582 59.8145 21.5586 60.2246 22.2715C60.6348 22.9746 61.1279 23.3262 61.7041 23.3262C62.0947 23.3262 62.4707 23.1748 62.832 22.8721C63.1934 22.5596 63.5254 22.1934 63.8281 21.7734C64.1309 21.3535 64.3945 20.9287 64.6191 20.499C64.8535 20.0596 65.0342 19.708 65.1611 19.4443C65.21 19.3467 65.2783 19.2734 65.3662 19.2246C65.4541 19.166 65.5518 19.1367 65.6592 19.1367C65.8252 19.1367 65.957 19.1953 66.0547 19.3125C66.1621 19.4297 66.2158 19.5615 66.2158 19.708C66.2158 19.7666 66.1963 19.8447 66.1572 19.9424ZM58.8184 14.0537C58.8184 14.6787 58.833 15.2793 58.8623 15.8555C58.8916 16.4316 58.9307 16.9834 58.9795 17.5107C59.3896 16.7197 59.7803 15.8799 60.1514 14.9912C60.5225 14.0928 60.8496 13.1895 61.1328 12.2812C61.416 11.3633 61.6406 10.4551 61.8066 9.55664C61.9824 8.64844 62.0703 7.78418 62.0703 6.96387C62.0703 5.81152 61.9775 4.98633 61.792 4.48828C61.6064 3.99023 61.3574 3.74121 61.0449 3.74121C60.8398 3.74121 60.6396 3.88281 60.4443 4.16602C60.2588 4.44922 60.083 4.83496 59.917 5.32324C59.751 5.81152 59.5996 6.3877 59.4629 7.05176C59.3262 7.71582 59.209 8.42871 59.1113 9.19043C59.0234 9.95215 58.9502 10.748 58.8916 11.5781C58.8428 12.4082 58.8184 13.2334 58.8184 14.0537ZM79.2559 19.9424C79.1973 20.0498 79.0947 20.2451 78.9482 20.5283C78.8115 20.8115 78.6211 21.1338 78.377 21.4951C78.1426 21.8467 77.8594 22.2129 77.5273 22.5938C77.1953 22.9746 76.8145 23.3262 76.3848 23.6484C75.9551 23.9609 75.4717 24.2197 74.9346 24.4248C74.4072 24.6299 73.8311 24.7324 73.2061 24.7324C72.6494 24.7324 72.1562 24.6299 71.7266 24.4248C71.2969 24.2295 70.9307 23.9512 70.6279 23.5898C70.3252 23.2188 70.0957 22.7842 69.9395 22.2861C69.7832 21.7881 69.7051 21.2363 69.7051 20.6309C69.7051 20.0449 69.7881 19.498 69.9541 18.9902C70.1201 18.4727 70.3447 18.0234 70.6279 17.6426C70.9209 17.2617 71.2578 16.9639 71.6387 16.749C72.0195 16.5244 72.4248 16.4121 72.8545 16.4121C73.1768 16.4121 73.4697 16.4707 73.7334 16.5879C73.9971 16.6953 74.2168 16.8418 74.3926 17.0273C74.5781 17.2129 74.7197 17.418 74.8174 17.6426C74.9248 17.8672 74.9785 18.0918 74.9785 18.3164C74.9785 18.5312 74.9492 18.7314 74.8906 18.917C74.8418 19.1025 74.7734 19.2686 74.6855 19.415C74.6074 19.5518 74.5146 19.6641 74.4072 19.752C74.2998 19.8301 74.1924 19.8691 74.085 19.8691C73.9189 19.8691 73.7822 19.8154 73.6748 19.708C73.5771 19.6006 73.5283 19.4688 73.5283 19.3125C73.5283 19.2344 73.543 19.166 73.5723 19.1074C73.6113 19.0488 73.6504 18.9902 73.6895 18.9316C73.7383 18.8633 73.7773 18.7852 73.8066 18.6973C73.8457 18.5996 73.8652 18.4775 73.8652 18.3311C73.8652 18.126 73.7676 17.9404 73.5723 17.7744C73.3867 17.6084 73.1475 17.5254 72.8545 17.5254C72.5811 17.5254 72.3174 17.6084 72.0635 17.7744C71.8193 17.9404 71.6045 18.165 71.4189 18.4482C71.2334 18.7217 71.082 19.0488 70.9648 19.4297C70.8574 19.8008 70.8037 20.1963 70.8037 20.6162C70.8037 21.0166 70.8525 21.3975 70.9502 21.7588C71.0479 22.1201 71.1943 22.4424 71.3896 22.7256C71.585 22.999 71.8291 23.2188 72.1221 23.3848C72.4248 23.5508 72.7812 23.6338 73.1914 23.6338C73.7188 23.6338 74.207 23.541 74.6562 23.3555C75.1055 23.1602 75.5156 22.916 75.8867 22.623C76.2578 22.3301 76.585 22.0127 76.8682 21.6709C77.1514 21.3193 77.3906 20.9922 77.5859 20.6895C77.791 20.377 77.9473 20.1084 78.0547 19.8838C78.1719 19.6494 78.2402 19.5029 78.2598 19.4443C78.2988 19.3467 78.3623 19.2734 78.4502 19.2246C78.5479 19.166 78.6504 19.1367 78.7578 19.1367C78.9238 19.1367 79.0557 19.1953 79.1533 19.3125C79.2607 19.4297 79.3145 19.5615 79.3145 19.708C79.3145 19.7666 79.2949 19.8447 79.2559 19.9424ZM89.5127 22.3887C89.2686 22.3887 89.0537 22.3691 88.8682 22.3301C88.7217 22.623 88.5459 22.8965 88.3408 23.1504C88.1357 23.3945 87.8965 23.6094 87.623 23.7949C87.3594 23.9805 87.0615 24.127 86.7295 24.2344C86.3975 24.3418 86.0361 24.3955 85.6455 24.3955C85.1865 24.3955 84.7666 24.3125 84.3857 24.1465C84.0049 23.9902 83.6729 23.7705 83.3896 23.4873C83.1064 23.1943 82.8867 22.8477 82.7305 22.4473C82.5742 22.0371 82.4961 21.5879 82.4961 21.0996C82.4961 20.4746 82.6084 19.9326 82.833 19.4736C83.0576 19.0049 83.3164 18.6191 83.6094 18.3164C83.9023 18.0039 84.1953 17.7744 84.4883 17.6279C84.7812 17.4717 85.001 17.3936 85.1475 17.3936C85.3135 17.3936 85.4355 17.4375 85.5137 17.5254C85.6016 17.6133 85.6455 17.7305 85.6455 17.877C85.6455 18.043 85.5918 18.1699 85.4844 18.2578C85.3867 18.3359 85.2598 18.4141 85.1035 18.4922C84.9473 18.5703 84.7812 18.6826 84.6055 18.8291C84.4297 18.9658 84.2637 19.1416 84.1074 19.3564C83.9609 19.5713 83.8389 19.8252 83.7412 20.1182C83.6436 20.4111 83.5947 20.7383 83.5947 21.0996C83.5947 21.4219 83.6436 21.7246 83.7412 22.0078C83.8389 22.2812 83.9805 22.5205 84.166 22.7256C84.3516 22.9209 84.5713 23.0771 84.8252 23.1943C85.0791 23.3018 85.3623 23.3555 85.6748 23.3555C86.2314 23.3555 86.6904 23.2285 87.0518 22.9746C87.4229 22.7109 87.7061 22.3789 87.9014 21.9785C87.3252 21.6758 86.8516 21.2461 86.4805 20.6895C86.1094 20.1328 85.9238 19.5078 85.9238 18.8145C85.9238 18.2578 86.0557 17.8037 86.3193 17.4521C86.5928 17.1006 86.9492 16.9248 87.3887 16.9248C87.6523 16.9248 87.9014 16.9883 88.1357 17.1152C88.3701 17.2422 88.5752 17.4424 88.751 17.7158C88.9365 17.9893 89.083 18.3408 89.1904 18.7705C89.2979 19.2002 89.3516 19.7129 89.3516 20.3086C89.3516 20.6211 89.3125 20.9482 89.2344 21.29C89.293 21.2998 89.3516 21.3047 89.4102 21.3047C89.4688 21.3047 89.5322 21.3047 89.6006 21.3047C89.9326 21.3047 90.2305 21.2656 90.4941 21.1875C90.7578 21.1094 90.9971 20.9922 91.2119 20.8359C91.4268 20.6797 91.6172 20.4795 91.7832 20.2354C91.959 19.9912 92.125 19.708 92.2812 19.3857C92.3105 19.3271 92.374 19.2734 92.4717 19.2246C92.5693 19.166 92.667 19.1367 92.7646 19.1367C92.8916 19.1367 93.0088 19.1904 93.1162 19.2979C93.2334 19.3955 93.292 19.5273 93.292 19.6934C93.292 19.7715 93.2725 19.8594 93.2334 19.957C93.1943 20.0449 93.1553 20.1279 93.1162 20.2061C92.9502 20.499 92.7549 20.7822 92.5303 21.0557C92.3154 21.3193 92.0566 21.5537 91.7539 21.7588C91.4609 21.9541 91.1289 22.1104 90.7578 22.2275C90.3867 22.3447 89.9717 22.3984 89.5127 22.3887ZM87.0078 18.6973C87.0078 18.8828 87.0322 19.0781 87.0811 19.2832C87.1299 19.4883 87.2031 19.6934 87.3008 19.8984C87.4082 20.0938 87.5352 20.2842 87.6816 20.4697C87.8379 20.6455 88.0186 20.7969 88.2236 20.9238C88.2529 20.7188 88.2676 20.5186 88.2676 20.3232C88.2676 20.0596 88.248 19.791 88.209 19.5176C88.1699 19.2441 88.1113 18.9951 88.0332 18.7705C87.9648 18.5361 87.877 18.3506 87.7695 18.2139C87.6621 18.0674 87.5352 17.9941 87.3887 17.9941C87.3301 17.9941 87.252 18.0381 87.1543 18.126C87.0566 18.2139 87.0078 18.4043 87.0078 18.6973ZM100.136 22.6963C100.282 22.4033 100.468 22.042 100.692 21.6123C100.927 21.1729 101.166 20.7334 101.41 20.2939C101.664 19.8545 101.908 19.4395 102.143 19.0488C102.387 18.6582 102.592 18.3604 102.758 18.1553C103.041 17.8135 103.334 17.5693 103.637 17.4229C103.939 17.2764 104.218 17.2031 104.472 17.2031C104.726 17.2031 104.94 17.2568 105.116 17.3643C105.302 17.4717 105.453 17.6182 105.57 17.8037C105.688 17.9795 105.775 18.1895 105.834 18.4336C105.893 18.668 105.922 18.9219 105.922 19.1953C105.922 19.3516 105.912 19.5566 105.893 19.8105C105.883 20.0645 105.868 20.3379 105.849 20.6309C105.839 20.9238 105.824 21.2266 105.805 21.5391C105.795 21.8516 105.785 22.1445 105.775 22.418C105.922 22.125 106.088 21.8027 106.273 21.4512C106.459 21.0898 106.645 20.7334 106.83 20.3818C107.025 20.0303 107.211 19.7031 107.387 19.4004C107.562 19.0879 107.724 18.834 107.87 18.6387C108.29 18.0625 108.681 17.6768 109.042 17.4814C109.413 17.2861 109.74 17.1885 110.023 17.1885C110.355 17.1885 110.629 17.252 110.844 17.3789C111.059 17.4961 111.225 17.6523 111.342 17.8477C111.469 18.0332 111.557 18.2432 111.605 18.4775C111.654 18.7119 111.679 18.9365 111.679 19.1514C111.679 19.4834 111.654 19.8301 111.605 20.1914C111.557 20.5527 111.532 20.9824 111.532 21.4805C111.532 21.6855 111.542 21.8906 111.562 22.0957C111.581 22.3008 111.62 22.4814 111.679 22.6377C111.747 22.7939 111.85 22.9209 111.986 23.0186C112.123 23.1162 112.309 23.165 112.543 23.165C112.797 23.165 113.046 23.1016 113.29 22.9746C113.534 22.8379 113.769 22.6621 113.993 22.4473C114.218 22.2324 114.428 21.9883 114.623 21.7148C114.828 21.4414 115.014 21.168 115.18 20.8945C115.346 20.6211 115.492 20.3623 115.619 20.1182C115.746 19.8643 115.849 19.6494 115.927 19.4736C115.976 19.3662 116.044 19.2832 116.132 19.2246C116.22 19.166 116.317 19.1367 116.425 19.1367C116.591 19.1367 116.723 19.2002 116.82 19.3271C116.928 19.4443 116.981 19.5713 116.981 19.708C116.981 19.7764 116.967 19.8447 116.938 19.9131C116.898 19.9912 116.82 20.1572 116.703 20.4111C116.586 20.6553 116.43 20.9385 116.234 21.2607C116.039 21.5732 115.81 21.9053 115.546 22.2568C115.292 22.6084 115.009 22.9355 114.696 23.2383C114.384 23.5312 114.047 23.7754 113.686 23.9707C113.324 24.1562 112.943 24.249 112.543 24.249C112.113 24.249 111.762 24.1709 111.488 24.0146C111.225 23.8682 111.01 23.668 110.844 23.4141C110.688 23.1602 110.58 22.8672 110.521 22.5352C110.463 22.2031 110.434 21.8564 110.434 21.4951C110.434 21.0166 110.458 20.5771 110.507 20.1768C110.556 19.7666 110.58 19.4492 110.58 19.2246C110.58 18.9805 110.556 18.7949 110.507 18.668C110.468 18.541 110.414 18.4531 110.346 18.4043C110.287 18.3457 110.229 18.3164 110.17 18.3164C110.111 18.3066 110.067 18.3018 110.038 18.3018C109.804 18.3018 109.555 18.4336 109.291 18.6973C109.037 18.9512 108.773 19.293 108.5 19.7227C108.227 20.1523 107.943 20.6406 107.65 21.1875C107.367 21.7344 107.079 22.291 106.786 22.8574C106.62 23.1699 106.479 23.4287 106.361 23.6338C106.254 23.8389 106.146 24 106.039 24.1172C105.941 24.2344 105.844 24.3174 105.746 24.3662C105.648 24.415 105.541 24.4395 105.424 24.4395C105.17 24.4395 104.975 24.3516 104.838 24.1758C104.711 24 104.647 23.7705 104.647 23.4873C104.647 23.3408 104.652 23.1455 104.662 22.9014C104.672 22.6572 104.682 22.3887 104.691 22.0957C104.701 21.8027 104.716 21.5 104.735 21.1875C104.755 20.875 104.77 20.5771 104.779 20.2939C104.789 20.001 104.799 19.7422 104.809 19.5176C104.818 19.293 104.823 19.1221 104.823 19.0049C104.823 18.751 104.779 18.5703 104.691 18.4629C104.604 18.3457 104.501 18.2871 104.384 18.2871C104.276 18.2871 104.154 18.3262 104.018 18.4043C103.891 18.4824 103.739 18.6338 103.563 18.8584C103.427 19.0342 103.251 19.293 103.036 19.6348C102.831 19.9668 102.611 20.3379 102.377 20.748C102.143 21.1582 101.908 21.5781 101.674 22.0078C101.449 22.4375 101.254 22.8232 101.088 23.165C100.883 23.5752 100.678 23.8535 100.473 24C100.268 24.1562 100.067 24.2344 99.8721 24.2344C99.5889 24.2344 99.3789 24.1514 99.2422 23.9854C99.1055 23.8096 99.0371 23.5801 99.0371 23.2969C99.0371 23.2676 99.042 23.0918 99.0518 22.7695C99.0713 22.4473 99.0908 22.0566 99.1104 21.5977C99.1299 21.1289 99.1494 20.6309 99.1689 20.1035C99.1982 19.5762 99.2227 19.083 99.2422 18.624C99.252 18.3799 99.2422 18.1553 99.2129 17.9502C99.1836 17.7451 99.1445 17.623 99.0957 17.584C99.0176 17.6035 98.8613 17.7842 98.627 18.126C98.4023 18.4678 98.1143 19.0635 97.7627 19.9131C97.7139 20.0205 97.6406 20.1035 97.543 20.1621C97.4453 20.2207 97.3428 20.25 97.2354 20.25C97.0693 20.25 96.9375 20.1963 96.8398 20.0889C96.7422 19.9717 96.6934 19.8398 96.6934 19.6934C96.6934 19.625 96.708 19.5518 96.7373 19.4736C97.1768 18.4287 97.5967 17.6621 97.9971 17.1738C98.3975 16.6758 98.7881 16.4268 99.1689 16.4268C99.3936 16.4268 99.5791 16.4805 99.7256 16.5879C99.8818 16.6855 100.004 16.8174 100.092 16.9834C100.18 17.1396 100.243 17.3203 100.282 17.5254C100.321 17.7305 100.341 17.9307 100.341 18.126C100.341 18.9951 100.316 19.791 100.268 20.5137C100.229 21.2363 100.185 21.9639 100.136 22.6963ZM122.199 22.3887C122.404 22.6719 122.668 22.9014 122.99 23.0771C123.312 23.2432 123.708 23.3262 124.177 23.3262C124.655 23.3262 125.09 23.2139 125.48 22.9893C125.871 22.7549 126.228 22.4521 126.55 22.0811C126.872 21.71 127.16 21.2949 127.414 20.8359C127.668 20.377 127.897 19.918 128.103 19.459C128.151 19.3516 128.22 19.2734 128.308 19.2246C128.396 19.166 128.493 19.1367 128.601 19.1367C128.767 19.1367 128.898 19.1953 128.996 19.3125C129.104 19.4297 129.157 19.5566 129.157 19.6934C129.157 19.7422 129.152 19.7861 129.143 19.8252C129.133 19.8545 129.118 19.8887 129.099 19.9277C128.425 21.4121 127.688 22.5303 126.887 23.2822C126.096 24.0342 125.197 24.4199 124.191 24.4395C123.547 24.4395 122.99 24.3125 122.521 24.0586C122.053 23.8145 121.667 23.4971 121.364 23.1064C121.062 22.7061 120.837 22.2568 120.69 21.7588C120.544 21.2607 120.471 20.7627 120.471 20.2646C120.471 19.7666 120.529 19.3076 120.646 18.8877C120.773 18.4678 120.949 18.1016 121.174 17.7891C121.408 17.4766 121.682 17.2324 121.994 17.0566C122.316 16.8809 122.668 16.793 123.049 16.793C123.273 16.793 123.493 16.8418 123.708 16.9395C123.933 17.0273 124.133 17.1592 124.309 17.335C124.484 17.501 124.626 17.7061 124.733 17.9502C124.841 18.1943 124.895 18.4727 124.895 18.7852C124.895 19.1855 124.826 19.5615 124.689 19.9131C124.553 20.2646 124.362 20.5918 124.118 20.8945C123.884 21.1973 123.601 21.4756 123.269 21.7295C122.937 21.9834 122.58 22.2031 122.199 22.3887ZM121.76 21.4365C122.062 21.3096 122.336 21.1484 122.58 20.9531C122.834 20.7578 123.049 20.543 123.225 20.3086C123.4 20.0742 123.537 19.8301 123.635 19.5762C123.732 19.3125 123.781 19.0488 123.781 18.7852C123.781 18.4922 123.708 18.2725 123.562 18.126C123.415 17.9697 123.244 17.8916 123.049 17.8916C122.785 17.8916 122.561 17.9648 122.375 18.1113C122.189 18.2578 122.038 18.4482 121.921 18.6826C121.804 18.917 121.716 19.1807 121.657 19.4736C121.608 19.7568 121.584 20.04 121.584 20.3232C121.584 20.499 121.599 20.6846 121.628 20.8799C121.667 21.0752 121.711 21.2607 121.76 21.4365Z" fill="#1A73E9"/>
</svg>
